<svg xmlns="http://www.w3.org/2000/svg" viewBox="0 0 300 400" fill="none">
  <!-- Colombia Silhouette - More recognizable shape -->
  <path d="M145 20 
           L155 25 L165 30 L170 40 L175 50 L180 60 L185 70 L190 80 L195 90 L200 100 L205 110 L210 120 L215 130 L220 140 L225 150 L230 160 L235 170 L240 180 L245 190 L250 200 L255 210 L260 220 L265 230 L270 240 L275 250 L280 260 L285 270 L290 280 L285 290 L280 300 L275 310 L270 320 L265 330 L260 340 L255 350 L250 360 L245 370 L240 375 L235 380 L230 385 L225 380 L220 375 L215 370 L210 365 L205 360 L200 355 L195 350 L190 345 L185 340 L180 335 L175 330 L170 325 L165 320 L160 315 L155 310 L150 305 L145 300 L140 295 L135 290 L130 285 L125 280 L120 275 L115 270 L110 265 L105 260 L100 255 L95 250 L90 245 L85 240 L80 235 L75 230 L70 225 L65 220 L60 215 L55 210 L50 205 L45 200 L40 195 L35 190 L30 185 L25 180 L20 175 L15 170 L10 165 L15 160 L20 155 L25 150 L30 145 L35 140 L40 135 L45 130 L50 125 L55 120 L60 115 L65 110 L70 105 L75 100 L80 95 L85 90 L90 85 L95 80 L100 75 L105 70 L110 65 L115 60 L120 55 L125 50 L130 45 L135 40 L140 35 Z" 
        fill="rgba(139, 235, 208, 0.15)" 
        stroke="rgba(139, 235, 208, 0.5)" 
        stroke-width="1.5"/>
</svg>
